<mxfile host="app.diagrams.net" modified="2023-12-22T18:10:14.618Z" agent="Mozilla/5.0 (Windows NT 10.0; Win64; x64) AppleWebKit/537.36 (KHTML, like Gecko) Chrome/120.0.0.0 Safari/537.36" etag="P_1HSpQkM3I0rjhHihru" version="22.1.11" type="device">
  <diagram name="Página-1" id="Fo_5AuS8SqRFMoKRhpDh">
    <mxGraphModel dx="1290" dy="557" grid="1" gridSize="10" guides="1" tooltips="1" connect="1" arrows="1" fold="1" page="1" pageScale="1" pageWidth="827" pageHeight="1169" math="0" shadow="0">
      <root>
        <mxCell id="0" />
        <mxCell id="1" parent="0" />
        <mxCell id="jAYWoc-YA-pUDj_3XlHj-1" value="«Component»&lt;br&gt;&amp;lt;&amp;lt;Container (C4)&amp;gt;&amp;gt;&lt;br&gt;MDTarefas" style="html=1;dropTarget=0;whiteSpace=wrap;verticalAlign=top;fillColor=#72C9F7;strokeColor=#000000;strokeWidth=2;" parent="1" vertex="1">
          <mxGeometry x="144.62" y="110" width="915.38" height="700" as="geometry" />
        </mxCell>
        <mxCell id="jAYWoc-YA-pUDj_3XlHj-2" value="" style="shape=module;jettyWidth=8;jettyHeight=4;fillColor=#72c9f7;" parent="jAYWoc-YA-pUDj_3XlHj-1" vertex="1">
          <mxGeometry x="1" width="20" height="20" relative="1" as="geometry">
            <mxPoint x="-27" y="7" as="offset" />
          </mxGeometry>
        </mxCell>
        <mxCell id="jAYWoc-YA-pUDj_3XlHj-3" value="" style="html=1;rounded=0;fillColor=#72C9F7;" parent="1" vertex="1">
          <mxGeometry x="256.75" y="100" width="18.5" height="20" as="geometry" />
        </mxCell>
        <mxCell id="jAYWoc-YA-pUDj_3XlHj-4" value="" style="endArrow=none;html=1;rounded=0;align=center;verticalAlign=top;endFill=0;labelBackgroundColor=none;endSize=2;" parent="1" source="jAYWoc-YA-pUDj_3XlHj-3" target="jAYWoc-YA-pUDj_3XlHj-5" edge="1">
          <mxGeometry relative="1" as="geometry" />
        </mxCell>
        <mxCell id="jAYWoc-YA-pUDj_3XlHj-5" value="" style="ellipse;html=1;fontSize=11;align=center;fillColor=#72C9F7;points=[];aspect=fixed;resizable=1;verticalAlign=bottom;labelPosition=center;verticalLabelPosition=top;flipH=1;rotation=0;" parent="1" vertex="1">
          <mxGeometry x="256.75" y="60" width="18" height="18" as="geometry" />
        </mxCell>
        <mxCell id="jAYWoc-YA-pUDj_3XlHj-6" value="MDTarefas API" style="text;html=1;align=center;verticalAlign=middle;resizable=0;points=[];autosize=1;strokeColor=none;fillColor=none;" parent="1" vertex="1">
          <mxGeometry x="282.25" y="60" width="100" height="30" as="geometry" />
        </mxCell>
        <mxCell id="jAYWoc-YA-pUDj_3XlHj-12" value="Interface Adapters Layer" style="shape=folder;fontStyle=1;spacingTop=10;tabWidth=40;tabHeight=14;tabPosition=left;html=1;whiteSpace=wrap;verticalAlign=top;fillColor=#c0ffc0;" parent="1" vertex="1">
          <mxGeometry x="179" y="260" width="831" height="110" as="geometry" />
        </mxCell>
        <mxCell id="jAYWoc-YA-pUDj_3XlHj-13" value="«component»&lt;br&gt;&lt;b&gt;Controller&lt;/b&gt;" style="html=1;dropTarget=0;whiteSpace=wrap;fillColor=#7ACFF5;" parent="1" vertex="1">
          <mxGeometry x="197.25" y="300" width="140" height="50" as="geometry" />
        </mxCell>
        <mxCell id="jAYWoc-YA-pUDj_3XlHj-14" value="" style="shape=module;jettyWidth=8;jettyHeight=4;fillColor=#7ACFF5;" parent="jAYWoc-YA-pUDj_3XlHj-13" vertex="1">
          <mxGeometry x="1" width="20" height="20" relative="1" as="geometry">
            <mxPoint x="-27" y="7" as="offset" />
          </mxGeometry>
        </mxCell>
        <mxCell id="jAYWoc-YA-pUDj_3XlHj-17" value="" style="endArrow=none;html=1;rounded=0;exitX=0.5;exitY=0;exitDx=0;exitDy=0;entryX=0.5;entryY=1;entryDx=0;entryDy=0;" parent="1" source="jAYWoc-YA-pUDj_3XlHj-13" target="jAYWoc-YA-pUDj_3XlHj-3" edge="1">
          <mxGeometry width="50" height="50" relative="1" as="geometry">
            <mxPoint x="277" y="210" as="sourcePoint" />
            <mxPoint x="267.25" y="230" as="targetPoint" />
          </mxGeometry>
        </mxCell>
        <mxCell id="jAYWoc-YA-pUDj_3XlHj-18" value="«component»&lt;br&gt;&lt;b&gt;Repository&lt;/b&gt;" style="html=1;dropTarget=0;whiteSpace=wrap;fillColor=#7ACFF5;" parent="1" vertex="1">
          <mxGeometry x="792" y="290" width="140" height="50" as="geometry" />
        </mxCell>
        <mxCell id="jAYWoc-YA-pUDj_3XlHj-19" value="" style="shape=module;jettyWidth=8;jettyHeight=4;fillColor=#7ACFF5;" parent="jAYWoc-YA-pUDj_3XlHj-18" vertex="1">
          <mxGeometry x="1" width="20" height="20" relative="1" as="geometry">
            <mxPoint x="-27" y="7" as="offset" />
          </mxGeometry>
        </mxCell>
        <mxCell id="jAYWoc-YA-pUDj_3XlHj-20" value="Application Business Rules" style="shape=folder;fontStyle=1;spacingTop=10;tabWidth=40;tabHeight=14;tabPosition=left;html=1;whiteSpace=wrap;verticalAlign=top;fillColor=#ffafaf;" parent="1" vertex="1">
          <mxGeometry x="179" y="450" width="841" height="110" as="geometry" />
        </mxCell>
        <mxCell id="jAYWoc-YA-pUDj_3XlHj-21" value="" style="shape=providedRequiredInterface;html=1;verticalLabelPosition=bottom;sketch=0;rotation=-90;fillColor=#72c9f7;" parent="1" vertex="1">
          <mxGeometry x="222.25" y="390" width="30" height="30" as="geometry" />
        </mxCell>
        <mxCell id="jAYWoc-YA-pUDj_3XlHj-22" value="" style="endArrow=none;html=1;rounded=0;exitX=1;exitY=0.5;exitDx=0;exitDy=0;exitPerimeter=0;entryX=0.5;entryY=1;entryDx=0;entryDy=0;" parent="1" source="jAYWoc-YA-pUDj_3XlHj-21" edge="1">
          <mxGeometry width="50" height="50" relative="1" as="geometry">
            <mxPoint x="490" y="400" as="sourcePoint" />
            <mxPoint x="237" y="350" as="targetPoint" />
          </mxGeometry>
        </mxCell>
        <mxCell id="jAYWoc-YA-pUDj_3XlHj-23" value="" style="endArrow=none;html=1;rounded=0;entryX=0;entryY=0.5;entryDx=0;entryDy=0;entryPerimeter=0;exitX=0.282;exitY=0.008;exitDx=0;exitDy=0;exitPerimeter=0;" parent="1" source="jAYWoc-YA-pUDj_3XlHj-29" target="jAYWoc-YA-pUDj_3XlHj-21" edge="1">
          <mxGeometry width="50" height="50" relative="1" as="geometry">
            <mxPoint x="237" y="450" as="sourcePoint" />
            <mxPoint x="247" y="360" as="targetPoint" />
          </mxGeometry>
        </mxCell>
        <mxCell id="jAYWoc-YA-pUDj_3XlHj-24" value="" style="shape=providedRequiredInterface;html=1;verticalLabelPosition=bottom;sketch=0;rotation=-90;fillColor=#72c9f7;" parent="1" vertex="1">
          <mxGeometry x="282.25" y="393" width="30" height="30" as="geometry" />
        </mxCell>
        <mxCell id="jAYWoc-YA-pUDj_3XlHj-25" value="" style="endArrow=none;html=1;rounded=0;exitX=1;exitY=0.5;exitDx=0;exitDy=0;exitPerimeter=0;entryX=0.5;entryY=1;entryDx=0;entryDy=0;" parent="1" source="jAYWoc-YA-pUDj_3XlHj-24" edge="1">
          <mxGeometry width="50" height="50" relative="1" as="geometry">
            <mxPoint x="550" y="400" as="sourcePoint" />
            <mxPoint x="297" y="350" as="targetPoint" />
          </mxGeometry>
        </mxCell>
        <mxCell id="jAYWoc-YA-pUDj_3XlHj-26" value="«component»&lt;br&gt;&lt;b&gt;DTO&lt;/b&gt;" style="html=1;dropTarget=0;whiteSpace=wrap;fillColor=#7ACFF5;" parent="1" vertex="1">
          <mxGeometry x="500" y="382" width="140" height="50" as="geometry" />
        </mxCell>
        <mxCell id="jAYWoc-YA-pUDj_3XlHj-27" value="" style="shape=module;jettyWidth=8;jettyHeight=4;fillColor=#7ACFF5;" parent="jAYWoc-YA-pUDj_3XlHj-26" vertex="1">
          <mxGeometry x="1" width="20" height="20" relative="1" as="geometry">
            <mxPoint x="-27" y="7" as="offset" />
          </mxGeometry>
        </mxCell>
        <mxCell id="jAYWoc-YA-pUDj_3XlHj-28" value="" style="endArrow=none;html=1;rounded=0;exitX=-0.004;exitY=0.593;exitDx=0;exitDy=0;exitPerimeter=0;entryX=0.43;entryY=0.113;entryDx=0;entryDy=0;entryPerimeter=0;" parent="1" source="jAYWoc-YA-pUDj_3XlHj-26" target="jAYWoc-YA-pUDj_3XlHj-38" edge="1">
          <mxGeometry width="50" height="50" relative="1" as="geometry">
            <mxPoint x="247" y="460" as="sourcePoint" />
            <mxPoint x="247" y="420" as="targetPoint" />
          </mxGeometry>
        </mxCell>
        <mxCell id="jAYWoc-YA-pUDj_3XlHj-29" value="«component»&lt;br&gt;&lt;b&gt;Application Service&lt;/b&gt;" style="html=1;dropTarget=0;whiteSpace=wrap;fillColor=#7ACFF5;" parent="1" vertex="1">
          <mxGeometry x="197.25" y="480" width="140" height="50" as="geometry" />
        </mxCell>
        <mxCell id="jAYWoc-YA-pUDj_3XlHj-30" value="" style="shape=module;jettyWidth=8;jettyHeight=4;fillColor=#7ACFF5;" parent="jAYWoc-YA-pUDj_3XlHj-29" vertex="1">
          <mxGeometry x="1" width="20" height="20" relative="1" as="geometry">
            <mxPoint x="-27" y="7" as="offset" />
          </mxGeometry>
        </mxCell>
        <mxCell id="jAYWoc-YA-pUDj_3XlHj-31" value="" style="endArrow=none;html=1;rounded=0;exitX=0.713;exitY=0.012;exitDx=0;exitDy=0;entryX=1;entryY=0.5;entryDx=0;entryDy=0;entryPerimeter=0;exitPerimeter=0;" parent="1" source="jAYWoc-YA-pUDj_3XlHj-29" target="jAYWoc-YA-pUDj_3XlHj-38" edge="1">
          <mxGeometry width="50" height="50" relative="1" as="geometry">
            <mxPoint x="429" y="423" as="sourcePoint" />
            <mxPoint x="319" y="423" as="targetPoint" />
          </mxGeometry>
        </mxCell>
        <mxCell id="jAYWoc-YA-pUDj_3XlHj-32" value="Enterprise Business Rules" style="shape=folder;fontStyle=1;spacingTop=10;tabWidth=40;tabHeight=14;tabPosition=left;html=1;whiteSpace=wrap;verticalAlign=top;fillColor=#ffe0c0;" parent="1" vertex="1">
          <mxGeometry x="179" y="640" width="841" height="110" as="geometry" />
        </mxCell>
        <mxCell id="jAYWoc-YA-pUDj_3XlHj-33" value="" style="shape=providedRequiredInterface;html=1;verticalLabelPosition=bottom;sketch=0;rotation=-180;fillColor=#72c9f7;" parent="1" vertex="1">
          <mxGeometry x="456" y="586" width="30" height="30" as="geometry" />
        </mxCell>
        <mxCell id="jAYWoc-YA-pUDj_3XlHj-34" value="" style="endArrow=none;html=1;rounded=0;exitX=1;exitY=0.5;exitDx=0;exitDy=0;exitPerimeter=0;entryX=0.5;entryY=1;entryDx=0;entryDy=0;" parent="1" source="jAYWoc-YA-pUDj_3XlHj-33" target="jAYWoc-YA-pUDj_3XlHj-29" edge="1">
          <mxGeometry width="50" height="50" relative="1" as="geometry">
            <mxPoint x="557.75" y="590" as="sourcePoint" />
            <mxPoint x="304.75" y="540" as="targetPoint" />
            <Array as="points">
              <mxPoint x="267" y="600" />
            </Array>
          </mxGeometry>
        </mxCell>
        <mxCell id="jAYWoc-YA-pUDj_3XlHj-35" value="" style="endArrow=none;html=1;rounded=0;entryX=0.402;entryY=0.899;entryDx=0;entryDy=0;entryPerimeter=0;exitX=0.5;exitY=0;exitDx=0;exitDy=0;" parent="1" source="jAYWoc-YA-pUDj_3XlHj-36" target="jAYWoc-YA-pUDj_3XlHj-43" edge="1">
          <mxGeometry width="50" height="50" relative="1" as="geometry">
            <mxPoint x="304.75" y="690" as="sourcePoint" />
            <mxPoint x="314.75" y="580" as="targetPoint" />
          </mxGeometry>
        </mxCell>
        <mxCell id="jAYWoc-YA-pUDj_3XlHj-36" value="«component»&lt;br&gt;&lt;b&gt;Domain Model (DDD)&lt;/b&gt;" style="html=1;dropTarget=0;whiteSpace=wrap;fillColor=#7ACFF5;" parent="1" vertex="1">
          <mxGeometry x="390" y="680" width="168" height="50" as="geometry" />
        </mxCell>
        <mxCell id="jAYWoc-YA-pUDj_3XlHj-37" value="" style="shape=module;jettyWidth=8;jettyHeight=4;fillColor=#7ACFF5;" parent="jAYWoc-YA-pUDj_3XlHj-36" vertex="1">
          <mxGeometry x="1" width="20" height="20" relative="1" as="geometry">
            <mxPoint x="-27" y="7" as="offset" />
          </mxGeometry>
        </mxCell>
        <mxCell id="jAYWoc-YA-pUDj_3XlHj-38" value="" style="shape=providedRequiredInterface;html=1;verticalLabelPosition=bottom;sketch=0;rotation=90;fillColor=#72c9f7;" parent="1" vertex="1">
          <mxGeometry x="282.25" y="399" width="30" height="30" as="geometry" />
        </mxCell>
        <mxCell id="jAYWoc-YA-pUDj_3XlHj-39" value="App Service API" style="text;html=1;align=center;verticalAlign=middle;resizable=0;points=[];autosize=1;strokeColor=none;fillColor=none;fontStyle=1" parent="1" vertex="1">
          <mxGeometry x="153.25" y="420" width="120" height="30" as="geometry" />
        </mxCell>
        <mxCell id="jAYWoc-YA-pUDj_3XlHj-40" value="DTO API" style="text;html=1;align=center;verticalAlign=middle;resizable=0;points=[];autosize=1;strokeColor=none;fillColor=none;fontStyle=1" parent="1" vertex="1">
          <mxGeometry x="300" y="432" width="70" height="30" as="geometry" />
        </mxCell>
        <mxCell id="jAYWoc-YA-pUDj_3XlHj-41" value="Model API" style="text;html=1;align=center;verticalAlign=middle;resizable=0;points=[];autosize=1;strokeColor=none;fillColor=none;fontStyle=1" parent="1" vertex="1">
          <mxGeometry x="508" y="616" width="80" height="30" as="geometry" />
        </mxCell>
        <mxCell id="jAYWoc-YA-pUDj_3XlHj-43" value="" style="shape=providedRequiredInterface;html=1;verticalLabelPosition=bottom;sketch=0;rotation=0;fillColor=#72c9f7;" parent="1" vertex="1">
          <mxGeometry x="462" y="586" width="30" height="30" as="geometry" />
        </mxCell>
        <mxCell id="jAYWoc-YA-pUDj_3XlHj-44" value="" style="endArrow=none;html=1;rounded=0;exitX=1;exitY=0.5;exitDx=0;exitDy=0;exitPerimeter=0;entryX=0.75;entryY=1;entryDx=0;entryDy=0;" parent="1" source="jAYWoc-YA-pUDj_3XlHj-43" target="jAYWoc-YA-pUDj_3XlHj-18" edge="1">
          <mxGeometry width="50" height="50" relative="1" as="geometry">
            <mxPoint x="498" y="574" as="sourcePoint" />
            <mxPoint x="347" y="540" as="targetPoint" />
            <Array as="points">
              <mxPoint x="900" y="600" />
            </Array>
          </mxGeometry>
        </mxCell>
        <mxCell id="jAYWoc-YA-pUDj_3XlHj-45" value="" style="endArrow=none;html=1;rounded=0;entryX=1;entryY=0.75;entryDx=0;entryDy=0;exitX=1;exitY=0.5;exitDx=0;exitDy=0;exitPerimeter=0;" parent="1" source="jAYWoc-YA-pUDj_3XlHj-46" target="jAYWoc-YA-pUDj_3XlHj-29" edge="1">
          <mxGeometry width="50" height="50" relative="1" as="geometry">
            <mxPoint x="853" y="440" as="sourcePoint" />
            <mxPoint x="277" y="540" as="targetPoint" />
            <Array as="points">
              <mxPoint x="853" y="520" />
            </Array>
          </mxGeometry>
        </mxCell>
        <mxCell id="jAYWoc-YA-pUDj_3XlHj-46" value="" style="shape=providedRequiredInterface;html=1;verticalLabelPosition=bottom;sketch=0;rotation=90;fillColor=#72c9f7;" parent="1" vertex="1">
          <mxGeometry x="838" y="382" width="30" height="30" as="geometry" />
        </mxCell>
        <mxCell id="jAYWoc-YA-pUDj_3XlHj-47" value="" style="endArrow=none;html=1;rounded=0;exitX=0;exitY=0.5;exitDx=0;exitDy=0;exitPerimeter=0;entryX=0.434;entryY=0.992;entryDx=0;entryDy=0;entryPerimeter=0;" parent="1" source="jAYWoc-YA-pUDj_3XlHj-46" target="jAYWoc-YA-pUDj_3XlHj-18" edge="1">
          <mxGeometry width="50" height="50" relative="1" as="geometry">
            <mxPoint x="307" y="403" as="sourcePoint" />
            <mxPoint x="855" y="350" as="targetPoint" />
            <Array as="points" />
          </mxGeometry>
        </mxCell>
        <mxCell id="jAYWoc-YA-pUDj_3XlHj-48" value="Repo API" style="text;html=1;align=center;verticalAlign=middle;resizable=0;points=[];autosize=1;strokeColor=none;fillColor=none;fontStyle=1" parent="1" vertex="1">
          <mxGeometry x="772" y="420" width="80" height="30" as="geometry" />
        </mxCell>
        <mxCell id="jAYWoc-YA-pUDj_3XlHj-51" value="" style="endArrow=none;html=1;rounded=0;exitX=0.5;exitY=1;exitDx=0;exitDy=0;entryX=0.5;entryY=0;entryDx=0;entryDy=0;" parent="1" source="jAYWoc-YA-pUDj_3XlHj-61" target="jAYWoc-YA-pUDj_3XlHj-18" edge="1">
          <mxGeometry width="50" height="50" relative="1" as="geometry">
            <mxPoint x="897" y="243" as="sourcePoint" />
            <mxPoint x="863" y="170" as="targetPoint" />
            <Array as="points" />
          </mxGeometry>
        </mxCell>
        <mxCell id="jAYWoc-YA-pUDj_3XlHj-52" value="" style="shape=providedRequiredInterface;html=1;verticalLabelPosition=bottom;sketch=0;rotation=90;fillColor=#72c9f7;" parent="1" vertex="1">
          <mxGeometry x="820" y="213" width="30" height="30" as="geometry" />
        </mxCell>
        <mxCell id="jAYWoc-YA-pUDj_3XlHj-54" value="" style="endArrow=none;html=1;rounded=0;exitX=1;exitY=0.5;exitDx=0;exitDy=0;exitPerimeter=0;entryX=0.75;entryY=0;entryDx=0;entryDy=0;" parent="1" source="jAYWoc-YA-pUDj_3XlHj-52" edge="1">
          <mxGeometry width="50" height="50" relative="1" as="geometry">
            <mxPoint x="801" y="212" as="sourcePoint" />
            <mxPoint x="835" y="290" as="targetPoint" />
            <Array as="points" />
          </mxGeometry>
        </mxCell>
        <mxCell id="jAYWoc-YA-pUDj_3XlHj-56" value="«component»&lt;br&gt;&lt;b&gt;Schema&lt;/b&gt;" style="html=1;dropTarget=0;whiteSpace=wrap;fillColor=#7ACFF5;" parent="1" vertex="1">
          <mxGeometry x="580" y="200" width="140" height="50" as="geometry" />
        </mxCell>
        <mxCell id="jAYWoc-YA-pUDj_3XlHj-57" value="" style="shape=module;jettyWidth=8;jettyHeight=4;fillColor=#7ACFF5;" parent="jAYWoc-YA-pUDj_3XlHj-56" vertex="1">
          <mxGeometry x="1" width="20" height="20" relative="1" as="geometry">
            <mxPoint x="-27" y="7" as="offset" />
          </mxGeometry>
        </mxCell>
        <mxCell id="jAYWoc-YA-pUDj_3XlHj-58" value="" style="endArrow=none;html=1;rounded=0;exitX=0.405;exitY=0.108;exitDx=0;exitDy=0;exitPerimeter=0;entryX=1;entryY=0.5;entryDx=0;entryDy=0;" parent="1" target="jAYWoc-YA-pUDj_3XlHj-56" edge="1">
          <mxGeometry width="50" height="50" relative="1" as="geometry">
            <mxPoint x="823.2399999999998" y="224.8499999999999" as="sourcePoint" />
            <mxPoint x="630" y="224.66" as="targetPoint" />
          </mxGeometry>
        </mxCell>
        <mxCell id="jAYWoc-YA-pUDj_3XlHj-59" value="Schema API" style="text;html=1;align=center;verticalAlign=middle;resizable=0;points=[];autosize=1;strokeColor=none;fillColor=none;fontStyle=1" parent="1" vertex="1">
          <mxGeometry x="738" y="237" width="90" height="30" as="geometry" />
        </mxCell>
        <mxCell id="jAYWoc-YA-pUDj_3XlHj-61" value="" style="html=1;rounded=0;fillColor=#72C9F7;" parent="1" vertex="1">
          <mxGeometry x="852" y="100" width="18.5" height="20" as="geometry" />
        </mxCell>
        <mxCell id="jAYWoc-YA-pUDj_3XlHj-62" value="" style="endArrow=none;html=1;rounded=0;align=center;verticalAlign=top;endFill=0;labelBackgroundColor=none;endSize=2;entryX=1;entryY=0.5;entryDx=0;entryDy=0;entryPerimeter=0;" parent="1" source="jAYWoc-YA-pUDj_3XlHj-61" target="jAYWoc-YA-pUDj_3XlHj-63" edge="1">
          <mxGeometry relative="1" as="geometry">
            <mxPoint x="859.25" y="-22" as="targetPoint" />
          </mxGeometry>
        </mxCell>
        <mxCell id="jAYWoc-YA-pUDj_3XlHj-63" value="" style="shape=requiredInterface;html=1;verticalLabelPosition=bottom;sketch=0;rotation=90;" parent="1" vertex="1">
          <mxGeometry x="856.25" y="58" width="10" height="20" as="geometry" />
        </mxCell>
        <mxCell id="jAYWoc-YA-pUDj_3XlHj-65" value="SGBD API" style="text;html=1;align=center;verticalAlign=middle;resizable=0;points=[];autosize=1;strokeColor=none;fillColor=none;fontStyle=1" parent="1" vertex="1">
          <mxGeometry x="870.5" y="60" width="80" height="30" as="geometry" />
        </mxCell>
      </root>
    </mxGraphModel>
  </diagram>
</mxfile>
